# xmcd
#
# Track frame offsets:
# 150
# 2635
# 9155
# 14772
# 28879
# 51930
# 69276
# 81259
# 104309
# 114773
# 134429
# 152267
# 163154
# 174350
# 193539
# 210700
# 219677
# 229069
#
# Disc length: 3329 seconds
#
#
# Revision: 0
# Processed by: cddbd v1.5.2PL0 Copyright (c) Steve Scherf et al.
# Submitted via: FreeRIP 2.945 
#
DISCID=e60cff12
DTITLE=La Oginal Banda El Limón - En Vivo
DYEAR=2006
DGENRE=Latin
TTITLE0=Intro
TTITLE1=Las Mañanitas
TTITLE2=El Sinaloense
TTITLE3=Abeja Reyna
TTITLE4=Potpourrí(Necesito úna Compañera/Si no te Hubieras Ido
TTITLE5=Potpourrí(Duro a la Báila/No te las Quites/A Quién no le Gusta Éso
TTITLE6=Ángel de la Noche
TTITLE7=Potpourrí(Te Llegará mi Olvido/Dos Gotas de Água)
TTITLE8=Al Ritmo de la Banda
TTITLE9=Como fuí a Enamorarme de Ti
TTITLE10=Que Buena Suerte
TTITLE11=Llegó su Padre
TTITLE12=Potpourrí(La Simona/Toro de 11/El Becerrero)
TTITLE13=Potpourrí(El León de la Sierra/La Caida de un Monarca/Vida Prestada
TTITLE14=Potpourrí(La Hierbita/Que la Dejen ir al Báile Sola/Donde Está el Amór
TTITLE15=Soledad
TTITLE16=Para Ti
TTITLE17=Potpourrí(Reproches al Viento/Laurita Garza)
EXTD=chinguen a su madre todas las bandas
EXTT0=
EXTT1=
EXTT2=
EXTT3=
EXTT4=
EXTT5=
EXTT6=
EXTT7=
EXTT8=
EXTT9=
EXTT10=
EXTT11=
EXTT12=
EXTT13=
EXTT14=
EXTT15=
EXTT16=
EXTT17=
PLAYORDER=
